<svg xmlns="http://www.w3.org/2000/svg" width="22" height="22" viewBox="0 0 24 24"
     fill="none" stroke="#5865F2" stroke-width="2" stroke-linecap="round" stroke-linejoin="round">
  <path d="M14.983 3l.123 .006c2.014 .214 3.527 .672 4.966 1.673a1 1 0 0 1 .371 .488c1.876 5.315 2.373 9.987 1.451 12.28c-1.003 2.005 -2.606 3.553 -4.394 3.553c-.94 0 -2.257 -1.596 -2.777 -2.969l-.02 .005c.838 -.131 1.69 -.323 2.572 -.574a1 1 0 1 0 -.557 -1.924c-3.32 .96 -6.644 .96 -9.964 0a1 1 0 0 0 -.557 1.924c.882 .251 1.734 .443 2.572 .574c-.52 1.373 -1.837 2.969 -2.777 2.969c-1.788 0 -3.391 -1.548 -4.394 -3.553c-.922 -2.293 -.425 -6.965 1.451 -12.28a1 1 0 0 1 .371 -.488c1.439 -1.001 2.952 -1.459 4.966 -1.673a1 1 0 0 1 .123 -.006l.882 1.763a17 17 0 0 1 4.152 0l.882 -1.763z"/>
  <circle cx="10" cy="12" r="1" fill="#5865F2" stroke="none"/>
  <circle cx="14" cy="12" r="1" fill="#5865F2" stroke="none"/>
</svg>
