<svg xmlns="http://www.w3.org/2000/svg" width="400" height="400" viewBox="0 0 400 400">
<g fill="#483550" opacity="0.13">
<rect x="0" y="0" width="16" height="16"/>
<rect x="16" y="0" width="16" height="16"/>
<rect x="32" y="0" width="16" height="16"/>
<rect x="48" y="0" width="16" height="16"/>
<rect x="64" y="0" width="16" height="16"/>
<rect x="80" y="0" width="16" height="16"/>
<rect x="96" y="0" width="16" height="16"/>
<rect x="144" y="0" width="16" height="16"/>
<rect x="160" y="0" width="16" height="16"/>
<rect x="176" y="0" width="16" height="16"/>
<rect x="240" y="0" width="16" height="16"/>
<rect x="256" y="0" width="16" height="16"/>
<rect x="288" y="0" width="16" height="16"/>
<rect x="304" y="0" width="16" height="16"/>
<rect x="320" y="0" width="16" height="16"/>
<rect x="336" y="0" width="16" height="16"/>
<rect x="352" y="0" width="16" height="16"/>
<rect x="368" y="0" width="16" height="16"/>
<rect x="384" y="0" width="16" height="16"/>
<rect x="0" y="16" width="16" height="16"/>
<rect x="96" y="16" width="16" height="16"/>
<rect x="128" y="16" width="16" height="16"/>
<rect x="144" y="16" width="16" height="16"/>
<rect x="176" y="16" width="16" height="16"/>
<rect x="192" y="16" width="16" height="16"/>
<rect x="240" y="16" width="16" height="16"/>
<rect x="288" y="16" width="16" height="16"/>
<rect x="384" y="16" width="16" height="16"/>
<rect x="0" y="32" width="16" height="16"/>
<rect x="32" y="32" width="16" height="16"/>
<rect x="48" y="32" width="16" height="16"/>
<rect x="64" y="32" width="16" height="16"/>
<rect x="96" y="32" width="16" height="16"/>
<rect x="144" y="32" width="16" height="16"/>
<rect x="192" y="32" width="16" height="16"/>
<rect x="208" y="32" width="16" height="16"/>
<rect x="240" y="32" width="16" height="16"/>
<rect x="256" y="32" width="16" height="16"/>
<rect x="288" y="32" width="16" height="16"/>
<rect x="320" y="32" width="16" height="16"/>
<rect x="336" y="32" width="16" height="16"/>
<rect x="352" y="32" width="16" height="16"/>
<rect x="384" y="32" width="16" height="16"/>
<rect x="0" y="48" width="16" height="16"/>
<rect x="32" y="48" width="16" height="16"/>
<rect x="48" y="48" width="16" height="16"/>
<rect x="64" y="48" width="16" height="16"/>
<rect x="96" y="48" width="16" height="16"/>
<rect x="128" y="48" width="16" height="16"/>
<rect x="240" y="48" width="16" height="16"/>
<rect x="288" y="48" width="16" height="16"/>
<rect x="320" y="48" width="16" height="16"/>
<rect x="336" y="48" width="16" height="16"/>
<rect x="352" y="48" width="16" height="16"/>
<rect x="384" y="48" width="16" height="16"/>
<rect x="0" y="64" width="16" height="16"/>
<rect x="32" y="64" width="16" height="16"/>
<rect x="48" y="64" width="16" height="16"/>
<rect x="64" y="64" width="16" height="16"/>
<rect x="96" y="64" width="16" height="16"/>
<rect x="208" y="64" width="16" height="16"/>
<rect x="224" y="64" width="16" height="16"/>
<rect x="240" y="64" width="16" height="16"/>
<rect x="256" y="64" width="16" height="16"/>
<rect x="288" y="64" width="16" height="16"/>
<rect x="320" y="64" width="16" height="16"/>
<rect x="336" y="64" width="16" height="16"/>
<rect x="352" y="64" width="16" height="16"/>
<rect x="384" y="64" width="16" height="16"/>
<rect x="0" y="80" width="16" height="16"/>
<rect x="96" y="80" width="16" height="16"/>
<rect x="128" y="80" width="16" height="16"/>
<rect x="144" y="80" width="16" height="16"/>
<rect x="160" y="80" width="16" height="16"/>
<rect x="192" y="80" width="16" height="16"/>
<rect x="208" y="80" width="16" height="16"/>
<rect x="224" y="80" width="16" height="16"/>
<rect x="240" y="80" width="16" height="16"/>
<rect x="288" y="80" width="16" height="16"/>
<rect x="384" y="80" width="16" height="16"/>
<rect x="0" y="96" width="16" height="16"/>
<rect x="16" y="96" width="16" height="16"/>
<rect x="32" y="96" width="16" height="16"/>
<rect x="48" y="96" width="16" height="16"/>
<rect x="64" y="96" width="16" height="16"/>
<rect x="80" y="96" width="16" height="16"/>
<rect x="96" y="96" width="16" height="16"/>
<rect x="128" y="96" width="16" height="16"/>
<rect x="160" y="96" width="16" height="16"/>
<rect x="192" y="96" width="16" height="16"/>
<rect x="224" y="96" width="16" height="16"/>
<rect x="256" y="96" width="16" height="16"/>
<rect x="288" y="96" width="16" height="16"/>
<rect x="304" y="96" width="16" height="16"/>
<rect x="320" y="96" width="16" height="16"/>
<rect x="336" y="96" width="16" height="16"/>
<rect x="352" y="96" width="16" height="16"/>
<rect x="368" y="96" width="16" height="16"/>
<rect x="384" y="96" width="16" height="16"/>
<rect x="160" y="112" width="16" height="16"/>
<rect x="192" y="112" width="16" height="16"/>
<rect x="208" y="112" width="16" height="16"/>
<rect x="48" y="128" width="16" height="16"/>
<rect x="64" y="128" width="16" height="16"/>
<rect x="80" y="128" width="16" height="16"/>
<rect x="96" y="128" width="16" height="16"/>
<rect x="112" y="128" width="16" height="16"/>
<rect x="128" y="128" width="16" height="16"/>
<rect x="176" y="128" width="16" height="16"/>
<rect x="208" y="128" width="16" height="16"/>
<rect x="256" y="128" width="16" height="16"/>
<rect x="272" y="128" width="16" height="16"/>
<rect x="304" y="128" width="16" height="16"/>
<rect x="352" y="128" width="16" height="16"/>
<rect x="368" y="128" width="16" height="16"/>
<rect x="16" y="144" width="16" height="16"/>
<rect x="32" y="144" width="16" height="16"/>
<rect x="48" y="144" width="16" height="16"/>
<rect x="112" y="144" width="16" height="16"/>
<rect x="128" y="144" width="16" height="16"/>
<rect x="144" y="144" width="16" height="16"/>
<rect x="224" y="144" width="16" height="16"/>
<rect x="288" y="144" width="16" height="16"/>
<rect x="320" y="144" width="16" height="16"/>
<rect x="336" y="144" width="16" height="16"/>
<rect x="0" y="160" width="16" height="16"/>
<rect x="32" y="160" width="16" height="16"/>
<rect x="80" y="160" width="16" height="16"/>
<rect x="96" y="160" width="16" height="16"/>
<rect x="144" y="160" width="16" height="16"/>
<rect x="224" y="160" width="16" height="16"/>
<rect x="240" y="160" width="16" height="16"/>
<rect x="256" y="160" width="16" height="16"/>
<rect x="320" y="160" width="16" height="16"/>
<rect x="336" y="160" width="16" height="16"/>
<rect x="384" y="160" width="16" height="16"/>
<rect x="16" y="176" width="16" height="16"/>
<rect x="64" y="176" width="16" height="16"/>
<rect x="128" y="176" width="16" height="16"/>
<rect x="160" y="176" width="16" height="16"/>
<rect x="176" y="176" width="16" height="16"/>
<rect x="224" y="176" width="16" height="16"/>
<rect x="240" y="176" width="16" height="16"/>
<rect x="288" y="176" width="16" height="16"/>
<rect x="320" y="176" width="16" height="16"/>
<rect x="336" y="176" width="16" height="16"/>
<rect x="352" y="176" width="16" height="16"/>
<rect x="384" y="176" width="16" height="16"/>
<rect x="0" y="192" width="16" height="16"/>
<rect x="16" y="192" width="16" height="16"/>
<rect x="48" y="192" width="16" height="16"/>
<rect x="96" y="192" width="16" height="16"/>
<rect x="112" y="192" width="16" height="16"/>
<rect x="128" y="192" width="16" height="16"/>
<rect x="160" y="192" width="16" height="16"/>
<rect x="176" y="192" width="16" height="16"/>
<rect x="272" y="192" width="16" height="16"/>
<rect x="288" y="192" width="16" height="16"/>
<rect x="304" y="192" width="16" height="16"/>
<rect x="320" y="192" width="16" height="16"/>
<rect x="0" y="208" width="16" height="16"/>
<rect x="16" y="208" width="16" height="16"/>
<rect x="32" y="208" width="16" height="16"/>
<rect x="64" y="208" width="16" height="16"/>
<rect x="80" y="208" width="16" height="16"/>
<rect x="112" y="208" width="16" height="16"/>
<rect x="128" y="208" width="16" height="16"/>
<rect x="144" y="208" width="16" height="16"/>
<rect x="160" y="208" width="16" height="16"/>
<rect x="192" y="208" width="16" height="16"/>
<rect x="240" y="208" width="16" height="16"/>
<rect x="336" y="208" width="16" height="16"/>
<rect x="368" y="208" width="16" height="16"/>
<rect x="384" y="208" width="16" height="16"/>
<rect x="0" y="224" width="16" height="16"/>
<rect x="16" y="224" width="16" height="16"/>
<rect x="48" y="224" width="16" height="16"/>
<rect x="96" y="224" width="16" height="16"/>
<rect x="112" y="224" width="16" height="16"/>
<rect x="192" y="224" width="16" height="16"/>
<rect x="208" y="224" width="16" height="16"/>
<rect x="288" y="224" width="16" height="16"/>
<rect x="352" y="224" width="16" height="16"/>
<rect x="384" y="224" width="16" height="16"/>
<rect x="0" y="240" width="16" height="16"/>
<rect x="48" y="240" width="16" height="16"/>
<rect x="64" y="240" width="16" height="16"/>
<rect x="112" y="240" width="16" height="16"/>
<rect x="160" y="240" width="16" height="16"/>
<rect x="224" y="240" width="16" height="16"/>
<rect x="256" y="240" width="16" height="16"/>
<rect x="272" y="240" width="16" height="16"/>
<rect x="304" y="240" width="16" height="16"/>
<rect x="320" y="240" width="16" height="16"/>
<rect x="352" y="240" width="16" height="16"/>
<rect x="16" y="256" width="16" height="16"/>
<rect x="32" y="256" width="16" height="16"/>
<rect x="48" y="256" width="16" height="16"/>
<rect x="96" y="256" width="16" height="16"/>
<rect x="128" y="256" width="16" height="16"/>
<rect x="144" y="256" width="16" height="16"/>
<rect x="240" y="256" width="16" height="16"/>
<rect x="272" y="256" width="16" height="16"/>
<rect x="320" y="256" width="16" height="16"/>
<rect x="336" y="256" width="16" height="16"/>
<rect x="352" y="256" width="16" height="16"/>
<rect x="384" y="256" width="16" height="16"/>
<rect x="160" y="272" width="16" height="16"/>
<rect x="192" y="272" width="16" height="16"/>
<rect x="256" y="272" width="16" height="16"/>
<rect x="272" y="272" width="16" height="16"/>
<rect x="288" y="272" width="16" height="16"/>
<rect x="304" y="272" width="16" height="16"/>
<rect x="352" y="272" width="16" height="16"/>
<rect x="0" y="288" width="16" height="16"/>
<rect x="16" y="288" width="16" height="16"/>
<rect x="32" y="288" width="16" height="16"/>
<rect x="48" y="288" width="16" height="16"/>
<rect x="64" y="288" width="16" height="16"/>
<rect x="80" y="288" width="16" height="16"/>
<rect x="96" y="288" width="16" height="16"/>
<rect x="128" y="288" width="16" height="16"/>
<rect x="144" y="288" width="16" height="16"/>
<rect x="160" y="288" width="16" height="16"/>
<rect x="256" y="288" width="16" height="16"/>
<rect x="272" y="288" width="16" height="16"/>
<rect x="288" y="288" width="16" height="16"/>
<rect x="304" y="288" width="16" height="16"/>
<rect x="320" y="288" width="16" height="16"/>
<rect x="336" y="288" width="16" height="16"/>
<rect x="352" y="288" width="16" height="16"/>
<rect x="368" y="288" width="16" height="16"/>
<rect x="0" y="304" width="16" height="16"/>
<rect x="96" y="304" width="16" height="16"/>
<rect x="176" y="304" width="16" height="16"/>
<rect x="192" y="304" width="16" height="16"/>
<rect x="208" y="304" width="16" height="16"/>
<rect x="256" y="304" width="16" height="16"/>
<rect x="288" y="304" width="16" height="16"/>
<rect x="352" y="304" width="16" height="16"/>
<rect x="368" y="304" width="16" height="16"/>
<rect x="0" y="320" width="16" height="16"/>
<rect x="32" y="320" width="16" height="16"/>
<rect x="48" y="320" width="16" height="16"/>
<rect x="64" y="320" width="16" height="16"/>
<rect x="96" y="320" width="16" height="16"/>
<rect x="192" y="320" width="16" height="16"/>
<rect x="224" y="320" width="16" height="16"/>
<rect x="288" y="320" width="16" height="16"/>
<rect x="320" y="320" width="16" height="16"/>
<rect x="352" y="320" width="16" height="16"/>
<rect x="384" y="320" width="16" height="16"/>
<rect x="0" y="336" width="16" height="16"/>
<rect x="32" y="336" width="16" height="16"/>
<rect x="48" y="336" width="16" height="16"/>
<rect x="64" y="336" width="16" height="16"/>
<rect x="96" y="336" width="16" height="16"/>
<rect x="144" y="336" width="16" height="16"/>
<rect x="192" y="336" width="16" height="16"/>
<rect x="240" y="336" width="16" height="16"/>
<rect x="272" y="336" width="16" height="16"/>
<rect x="288" y="336" width="16" height="16"/>
<rect x="352" y="336" width="16" height="16"/>
<rect x="368" y="336" width="16" height="16"/>
<rect x="384" y="336" width="16" height="16"/>
<rect x="0" y="352" width="16" height="16"/>
<rect x="32" y="352" width="16" height="16"/>
<rect x="48" y="352" width="16" height="16"/>
<rect x="64" y="352" width="16" height="16"/>
<rect x="96" y="352" width="16" height="16"/>
<rect x="128" y="352" width="16" height="16"/>
<rect x="176" y="352" width="16" height="16"/>
<rect x="208" y="352" width="16" height="16"/>
<rect x="272" y="352" width="16" height="16"/>
<rect x="288" y="352" width="16" height="16"/>
<rect x="304" y="352" width="16" height="16"/>
<rect x="320" y="352" width="16" height="16"/>
<rect x="336" y="352" width="16" height="16"/>
<rect x="352" y="352" width="16" height="16"/>
<rect x="384" y="352" width="16" height="16"/>
<rect x="0" y="368" width="16" height="16"/>
<rect x="96" y="368" width="16" height="16"/>
<rect x="144" y="368" width="16" height="16"/>
<rect x="160" y="368" width="16" height="16"/>
<rect x="176" y="368" width="16" height="16"/>
<rect x="208" y="368" width="16" height="16"/>
<rect x="256" y="368" width="16" height="16"/>
<rect x="288" y="368" width="16" height="16"/>
<rect x="320" y="368" width="16" height="16"/>
<rect x="0" y="384" width="16" height="16"/>
<rect x="16" y="384" width="16" height="16"/>
<rect x="32" y="384" width="16" height="16"/>
<rect x="48" y="384" width="16" height="16"/>
<rect x="64" y="384" width="16" height="16"/>
<rect x="80" y="384" width="16" height="16"/>
<rect x="96" y="384" width="16" height="16"/>
<rect x="144" y="384" width="16" height="16"/>
<rect x="160" y="384" width="16" height="16"/>
<rect x="192" y="384" width="16" height="16"/>
<rect x="208" y="384" width="16" height="16"/>
<rect x="256" y="384" width="16" height="16"/>
<rect x="272" y="384" width="16" height="16"/>
<rect x="288" y="384" width="16" height="16"/>
<rect x="304" y="384" width="16" height="16"/>
<rect x="320" y="384" width="16" height="16"/>
<rect x="336" y="384" width="16" height="16"/>
<rect x="352" y="384" width="16" height="16"/>
</g>
</svg>