<svg xmlns="http://www.w3.org/2000/svg" width="210" height="210" viewBox="0 0 210 210">
<path d="M0 0h10v10h-10z M10 0h10v10h-10z M20 0h10v10h-10z M30 0h10v10h-10z M40 0h10v10h-10z M50 0h10v10h-10z M60 0h10v10h-10z M80 0h10v10h-10z M100 0h10v10h-10z M120 0h10v10h-10z M140 0h10v10h-10z M150 0h10v10h-10z M160 0h10v10h-10z M170 0h10v10h-10z M180 0h10v10h-10z M190 0h10v10h-10z M200 0h10v10h-10z M0 10h10v10h-10z M60 10h10v10h-10z M90 10h10v10h-10z M110 10h10v10h-10z M120 10h10v10h-10z M140 10h10v10h-10z M200 10h10v10h-10z M0 20h10v10h-10z M20 20h10v10h-10z M30 20h10v10h-10z M40 20h10v10h-10z M60 20h10v10h-10z M80 20h10v10h-10z M90 20h10v10h-10z M120 20h10v10h-10z M140 20h10v10h-10z M160 20h10v10h-10z M170 20h10v10h-10z M180 20h10v10h-10z M200 20h10v10h-10z M0 30h10v10h-10z M20 30h10v10h-10z M30 30h10v10h-10z M40 30h10v10h-10z M60 30h10v10h-10z M90 30h10v10h-10z M100 30h10v10h-10z M140 30h10v10h-10z M160 30h10v10h-10z M170 30h10v10h-10z M180 30h10v10h-10z M200 30h10v10h-10z M0 40h10v10h-10z M20 40h10v10h-10z M30 40h10v10h-10z M40 40h10v10h-10z M60 40h10v10h-10z M80 40h10v10h-10z M100 40h10v10h-10z M110 40h10v10h-10z M140 40h10v10h-10z M160 40h10v10h-10z M170 40h10v10h-10z M180 40h10v10h-10z M200 40h10v10h-10z M0 50h10v10h-10z M60 50h10v10h-10z M80 50h10v10h-10z M90 50h10v10h-10z M120 50h10v10h-10z M140 50h10v10h-10z M200 50h10v10h-10z M0 60h10v10h-10z M10 60h10v10h-10z M20 60h10v10h-10z M30 60h10v10h-10z M40 60h10v10h-10z M50 60h10v10h-10z M60 60h10v10h-10z M80 60h10v10h-10z M100 60h10v10h-10z M120 60h10v10h-10z M140 60h10v10h-10z M150 60h10v10h-10z M160 60h10v10h-10z M170 60h10v10h-10z M180 60h10v10h-10z M190 60h10v10h-10z M200 60h10v10h-10z M90 70h10v10h-10z M100 70h10v10h-10z M0 80h10v10h-10z M20 80h10v10h-10z M40 80h10v10h-10z M50 80h10v10h-10z M60 80h10v10h-10z M80 80h10v10h-10z M90 80h10v10h-10z M110 80h10v10h-10z M120 80h10v10h-10z M150 80h10v10h-10z M170 80h10v10h-10z M190 80h10v10h-10z M10 90h10v10h-10z M30 90h10v10h-10z M70 90h10v10h-10z M100 90h10v10h-10z M120 90h10v10h-10z M130 90h10v10h-10z M160 90h10v10h-10z M180 90h10v10h-10z M200 90h10v10h-10z M0 100h10v10h-10z M10 100h10v10h-10z M40 100h10v10h-10z M60 100h10v10h-10z M80 100h10v10h-10z M90 100h10v10h-10z M110 100h10v10h-10z M140 100h10v10h-10z M170 100h10v10h-10z M180 100h10v10h-10z M20 110h10v10h-10z M30 110h10v10h-10z M50 110h10v10h-10z M70 110h10v10h-10z M80 110h10v10h-10z M100 110h10v10h-10z M130 110h10v10h-10z M150 110h10v10h-10z M180 110h10v10h-10z M190 110h10v10h-10z M0 120h10v10h-10z M20 120h10v10h-10z M40 120h10v10h-10z M60 120h10v10h-10z M90 120h10v10h-10z M100 120h10v10h-10z M120 120h10v10h-10z M130 120h10v10h-10z M160 120h10v10h-10z M170 120h10v10h-10z M200 120h10v10h-10z M80 130h10v10h-10z M110 130h10v10h-10z M130 130h10v10h-10z M140 130h10v10h-10z M160 130h10v10h-10z M180 130h10v10h-10z M0 140h10v10h-10z M10 140h10v10h-10z M20 140h10v10h-10z M30 140h10v10h-10z M40 140h10v10h-10z M50 140h10v10h-10z M60 140h10v10h-10z M90 140h10v10h-10z M100 140h10v10h-10z M120 140h10v10h-10z M150 140h10v10h-10z M170 140h10v10h-10z M180 140h10v10h-10z M200 140h10v10h-10z M0 150h10v10h-10z M60 150h10v10h-10z M80 150h10v10h-10z M110 150h10v10h-10z M130 150h10v10h-10z M160 150h10v10h-10z M190 150h10v10h-10z M0 160h10v10h-10z M20 160h10v10h-10z M30 160h10v10h-10z M40 160h10v10h-10z M60 160h10v10h-10z M80 160h10v10h-10z M90 160h10v10h-10z M120 160h10v10h-10z M130 160h10v10h-10z M140 160h10v10h-10z M170 160h10v10h-10z M190 160h10v10h-10z M200 160h10v10h-10z M0 170h10v10h-10z M20 170h10v10h-10z M30 170h10v10h-10z M40 170h10v10h-10z M60 170h10v10h-10z M100 170h10v10h-10z M110 170h10v10h-10z M140 170h10v10h-10z M150 170h10v10h-10z M180 170h10v10h-10z M0 180h10v10h-10z M20 180h10v10h-10z M30 180h10v10h-10z M40 180h10v10h-10z M60 180h10v10h-10z M80 180h10v10h-10z M100 180h10v10h-10z M120 180h10v10h-10z M150 180h10v10h-10z M160 180h10v10h-10z M180 180h10v10h-10z M190 180h10v10h-10z M0 190h10v10h-10z M60 190h10v10h-10z M90 190h10v10h-10z M110 190h10v10h-10z M120 190h10v10h-10z M140 190h10v10h-10z M170 190h10v10h-10z M200 190h10v10h-10z M0 200h10v10h-10z M10 200h10v10h-10z M20 200h10v10h-10z M30 200h10v10h-10z M40 200h10v10h-10z M50 200h10v10h-10z M60 200h10v10h-10z M80 200h10v10h-10z M110 200h10v10h-10z M130 200h10v10h-10z M140 200h10v10h-10z M150 200h10v10h-10z M170 200h10v10h-10z M190 200h10v10h-10z" fill="#fff"/>
</svg>